{
	"asset":{
		"generator":"Khronos glTF Blender I/O v4.3.47",
		"version":"2.0"
	},
	"scene":0,
	"scenes":[
		{
			"name":"Scene",
			"nodes":[
				0
			]
		}
	],
	"nodes":[
		{
			"mesh":0,
			"name":"Group1",
			"rotation":[
				0.6999943852424622,
				0,
				0,
				0.7141483426094055
			],
			"scale":[
				0.009999999776482582,
				0.009999999776482582,
				0.009999999776482582
			]
		}
	],
	"materials":[
		{
			"doubleSided":true,
			"name":"ilrOccSampler2",
			"pbrMetallicRoughness":{
				"baseColorFactor":[
					0.5,
					0.5,
					0.5,
					1
				],
				"metallicFactor":0,
				"roughnessFactor":0.5527864098548889
			}
		}
	],
	"meshes":[
		{
			"name":"Mesh",
			"primitives":[
				{
					"attributes":{
						"POSITION":0,
						"NORMAL":1,
						"TEXCOORD_0":2
					},
					"indices":3,
					"material":0
				}
			]
		}
	],
	"accessors":[
		{
			"bufferView":0,
			"componentType":5126,
			"count":7793,
			"max":[
				597.9418334960938,
				1006.9744873046875,
				796.5259399414062
			],
			"min":[
				-1563.118896484375,
				-1311.3575439453125,
				-326.8793640136719
			],
			"type":"VEC3"
		},
		{
			"bufferView":1,
			"componentType":5126,
			"count":7793,
			"type":"VEC3"
		},
		{
			"bufferView":2,
			"componentType":5126,
			"count":7793,
			"type":"VEC2"
		},
		{
			"bufferView":3,
			"componentType":5123,
			"count":43248,
			"type":"SCALAR"
		}
	],
	"bufferViews":[
		{
			"buffer":0,
			"byteLength":93516,
			"byteOffset":0,
			"target":34962
		},
		{
			"buffer":0,
			"byteLength":93516,
			"byteOffset":93516,
			"target":34962
		},
		{
			"buffer":0,
			"byteLength":62344,
			"byteOffset":187032,
			"target":34962
		},
		{
			"buffer":0,
			"byteLength":86496,
			"byteOffset":249376,
			"target":34963
		}
	],
	"buffers":[
		{
			"byteLength":335872,
			"uri":"cell_inner_wall.bin"
		}
	]
}
